<svg width="541" height="530" viewBox="0 0 541 530" fill="none" xmlns="http://www.w3.org/2000/svg">
<path d="M541 0H0V530H541V0Z" fill="#171819"/>
<g style="mix-blend-mode:multiply" opacity="0.25">
<path d="M270.5 433.356C332.282 433.356 382.366 421.887 382.366 407.739C382.366 393.591 332.282 382.122 270.5 382.122C208.718 382.122 158.634 393.591 158.634 407.739C158.634 421.887 208.718 433.356 270.5 433.356Z" fill="#9A9C9B"/>
</g>
<path d="M226.511 390.084C226.511 390.084 218.199 393.54 214.43 397.565C209.087 403.271 211.812 411.415 224.5 412.643C239.893 414.132 247.763 403.254 248.05 399.268C248.406 394.349 248.251 391.968 246.145 389.968C227.938 387.812 226.511 390.084 226.511 390.084Z" fill="black"/>
<path d="M226.511 390.084C226.511 390.084 218.199 393.54 214.43 397.565C209.087 403.271 211.812 411.415 224.5 412.643C239.893 414.132 247.763 403.254 248.05 399.268C248.406 394.349 248.251 391.968 246.145 389.968C227.938 387.812 226.511 390.084 226.511 390.084Z" stroke="black" stroke-width="2.80384" stroke-linecap="round" stroke-linejoin="round"/>
<path d="M229.409 363.705C229.409 363.705 231.39 383.813 229.69 388.501C229.404 389.29 224.425 390.33 223.858 393.302C223.358 395.924 225.186 398.825 229.222 400.113C235.6 402.149 242.779 400.237 245.318 394.935C247.644 390.078 242.892 378.937 249.463 363.334C231.109 363.334 229.409 363.705 229.409 363.705Z" fill="#FFAB91"/>
<path d="M228.032 395.198C228.598 392.226 233.577 391.186 233.864 390.396C235.563 385.709 233.583 365.601 233.583 365.601C233.583 365.601 234.971 365.299 248.713 365.239C248.947 364.611 249.192 363.978 249.463 363.331C231.11 363.331 229.411 363.702 229.411 363.702C229.411 363.702 231.39 383.81 229.691 388.498C229.405 389.287 224.425 390.328 223.859 393.3C223.359 395.921 225.187 398.822 229.223 400.111C229.579 400.224 229.938 400.323 230.298 400.41C228.455 398.959 227.685 397.011 228.032 395.198Z" fill="#E88B74"/>
<path d="M229.409 363.705C229.409 363.705 231.39 383.813 229.69 388.501C229.404 389.29 224.425 390.33 223.858 393.302C223.358 395.924 225.186 398.825 229.222 400.113C235.6 402.149 242.779 400.237 245.318 394.935C247.644 390.078 242.892 378.937 249.463 363.334C231.109 363.334 229.409 363.705 229.409 363.705Z" stroke="black" stroke-width="2.80384" stroke-linecap="round" stroke-linejoin="round"/>
<path d="M224.711 360.22C224.711 360.22 225.815 366.476 225.815 368.216C225.815 369.956 235.754 371.471 240.391 371.471C245.029 371.471 248.121 373.201 249.888 371.471C251.655 369.74 252.837 359.571 252.837 358.489C252.837 357.407 224.711 360.22 224.711 360.22Z" fill="#C65258"/>
<g style="mix-blend-mode:multiply" opacity="0.21">
<path d="M233.7 363.196C233.7 363.196 244.327 362.136 252.518 361.565C252.725 360.019 252.837 358.822 252.837 358.491C252.837 357.41 224.711 360.222 224.711 360.222C224.711 360.222 225.815 366.479 225.815 368.219C225.815 369.401 230.403 370.478 234.8 371.048C234.748 369.14 233.7 363.196 233.7 363.196Z" fill="#C65258"/>
</g>
<path d="M224.711 360.22C224.711 360.22 225.815 366.476 225.815 368.216C225.815 369.956 235.754 371.471 240.391 371.471C245.029 371.471 248.121 373.201 249.888 371.471C251.655 369.74 252.837 359.571 252.837 358.489C252.837 357.407 224.711 360.22 224.711 360.22Z" stroke="black" stroke-width="2.80384" stroke-linecap="round" stroke-linejoin="round"/>
<path opacity="0.6" d="M231.125 407.966C231.336 407.917 231.54 407.846 231.736 407.754" stroke="white" stroke-width="2.80384" stroke-linecap="round" stroke-linejoin="round"/>
<path opacity="0.6" d="M221.894 407.176C221.894 407.176 223.886 409.164 228.8 408.436" stroke="white" stroke-width="2.80384" stroke-linecap="round" stroke-linejoin="round"/>
<path d="M319.381 397.044C324.724 402.75 325.931 410.926 313.243 412.154C297.85 413.643 288.79 404.399 288.5 400.413C288.144 395.495 288.42 391.812 290.526 389.813C308.733 387.656 315.612 393.019 319.381 397.044Z" fill="black"/>
<path d="M319.381 397.044C324.724 402.75 325.931 410.926 313.243 412.154C297.85 413.643 288.79 404.399 288.5 400.413C288.144 395.495 288.42 391.812 290.526 389.813C308.733 387.656 315.612 393.019 319.381 397.044Z" stroke="black" stroke-width="2.80384" stroke-linecap="round" stroke-linejoin="round"/>
<path d="M305.898 363.705C305.898 363.705 303.918 383.813 305.617 388.501C305.904 389.29 312.846 394.67 307.381 398.822C305.23 400.456 294.021 400.237 291.482 394.935C289.155 390.078 292.416 378.937 285.845 363.334C304.198 363.334 305.898 363.705 305.898 363.705Z" fill="#FFAB91"/>
<path d="M295.679 395.282C293.353 390.425 296.614 379.284 290.043 363.681C298.135 363.681 302.987 363.753 305.886 363.834C305.893 363.758 305.898 363.705 305.898 363.705C305.898 363.705 304.198 363.334 285.845 363.334C292.416 378.938 289.156 390.078 291.482 394.936C293.208 398.54 298.938 399.793 303.108 399.714C299.944 399.127 296.866 397.76 295.679 395.282Z" fill="#E88B74"/>
<path d="M305.898 363.705C305.898 363.705 303.918 383.813 305.617 388.501C305.904 389.29 313.793 396.285 307.381 398.822C303.358 400.412 294.021 400.237 291.482 394.935C289.155 390.078 292.416 378.937 285.845 363.334C304.198 363.334 305.898 363.705 305.898 363.705Z" stroke="black" stroke-width="2.80384" stroke-linecap="round" stroke-linejoin="round"/>
<path d="M310.597 361.706C310.597 361.706 309.493 367.96 309.493 369.703C309.493 371.445 301.053 372.908 296.534 373.927C293.117 374.696 287.187 374.687 285.42 372.957C283.653 371.226 282.47 361.057 282.47 359.975C282.47 358.893 310.597 361.706 310.597 361.706Z" fill="#C65258"/>
<g style="mix-blend-mode:multiply" opacity="0.21">
<path d="M291.319 372.956C289.552 371.226 288.369 361.057 288.369 359.975C288.369 359.934 288.423 359.9 288.5 359.869C284.983 359.677 282.47 359.651 282.47 359.975C282.47 361.057 283.653 371.226 285.42 372.956C286.905 374.411 291.326 374.646 294.728 374.228C293.239 374.015 291.984 373.608 291.319 372.956Z" fill="#C65258"/>
</g>
<path d="M310.597 361.706C310.597 361.706 309.493 367.96 309.493 369.703C309.493 371.445 301.053 372.908 296.534 373.927C293.117 374.696 287.187 374.687 285.42 372.957C283.653 371.226 282.47 361.057 282.47 359.975C282.47 358.893 310.597 361.706 310.597 361.706Z" stroke="black" stroke-width="2.80384" stroke-linecap="round" stroke-linejoin="round"/>
<path opacity="0.6" d="M308.309 408.545C309.995 408.637 312.547 408.795 314.388 407.599" stroke="white" stroke-width="2.80384" stroke-linecap="round" stroke-linejoin="round"/>
<path opacity="0.6" d="M304.949 407.966C304.949 407.966 305.034 407.966 305.786 408.119" stroke="white" stroke-width="2.80384" stroke-linecap="round" stroke-linejoin="round"/>
<path d="M281.919 209.061H263.16C263.16 209.061 264.685 200.646 264.863 197.993C265.144 193.817 264.567 182.498 264.567 182.498H280.511C280.511 182.498 279.934 193.817 280.215 197.993C280.393 200.646 281.919 209.061 281.919 209.061Z" fill="#FFAB91"/>
<path d="M264.567 182.498C264.567 182.498 264.692 184.951 264.797 187.995C267.252 189.065 269.924 189.574 272.609 189.484C275.295 189.394 277.924 188.708 280.299 187.476V187.476C280.4 184.677 280.511 182.498 280.511 182.498H264.567Z" fill="#E88B74"/>
<path d="M281.919 209.061H263.16C263.16 209.061 264.685 200.646 264.863 197.993C265.144 193.817 264.567 182.498 264.567 182.498H280.511C280.511 182.498 279.934 193.817 280.215 197.993C280.393 200.646 281.919 209.061 281.919 209.061Z" stroke="black" stroke-width="2.80384" stroke-linejoin="round"/>
<path d="M280.477 197.365C279.576 200.897 276.9 204.264 272.295 204.264C267.69 204.264 265.014 200.897 264.116 197.365L251.747 198.107L254.092 276.674H290.201L292.545 198.107L280.477 197.365Z" fill="white"/>
<path d="M264.116 200.674C264.954 201.814 267.693 204.264 272.298 204.264C276.903 204.264 279.425 202.986 280.479 200.674L292.447 201.411L292.545 198.108L280.481 197.366C279.58 200.898 276.904 204.265 272.299 204.265C267.694 204.265 265.014 200.896 264.116 197.365L251.747 198.107L251.846 201.41L264.116 200.674Z" fill="#EFEFEF"/>
<path d="M280.477 197.365C279.576 200.897 276.9 204.264 272.295 204.264C267.69 204.264 265.014 200.897 264.116 197.365L251.747 198.107L254.092 276.674H290.201L292.545 198.107L280.477 197.365Z" stroke="black" stroke-width="2.80384" stroke-linejoin="round"/>
<path d="M301.287 276.675C301.287 276.675 302.773 291.291 317.183 321.755C327.036 342.584 317.453 363.388 302.592 367.019C290.198 370.048 278.679 367.898 275.109 353.941C271.96 341.62 277.367 324.6 275.425 316.09C271.828 316.89 270.247 316.866 267.614 316.09C260.808 331.04 265.999 347.587 259.164 356.55C252.705 365.021 235.906 368.85 223.342 360.809C210.374 352.508 212.647 336.364 224.431 318.285C234.436 302.933 242.4 284.574 243.897 274.291C247.762 274.291 301.287 276.675 301.287 276.675Z" fill="#5F2E50"/>
<g style="mix-blend-mode:overlay" opacity="0.22">
<g style="mix-blend-mode:overlay" opacity="0.22">
<path d="M232.747 358.591C219.779 350.29 222.051 334.146 233.835 316.067C243.069 301.9 250.56 285.177 252.838 274.598C248.137 274.411 244.765 274.291 243.899 274.291C242.402 284.573 234.437 302.933 224.432 318.285C212.648 336.365 210.376 352.508 223.343 360.809C231.962 366.325 242.573 366.254 250.473 362.929C244.239 363.427 238.01 361.903 232.747 358.591V358.591Z" fill="#5F2E50"/>
</g>
<g style="mix-blend-mode:overlay" opacity="0.22">
<path d="M284.512 351.723C280.191 340.133 283.49 317.662 278.805 314.43C275.208 315.229 276.043 316.195 275.649 317.367C276.867 326.214 272.109 342.206 275.108 353.941C278.675 367.898 290.196 370.048 302.591 367.019C303.756 366.729 304.891 366.336 305.983 365.843C296.029 366.8 288.723 363.016 284.512 351.723Z" fill="#5F2E50"/>
</g>
</g>
<path d="M291.13 245.424C291.13 245.424 292.123 279.75 279.887 298.636C269.656 314.43 248.966 317.329 243.094 317.497C238.3 317.561 233.558 316.509 229.258 314.43L233.7 293.561L291.13 245.424Z" fill="#5A2849"/>
<path d="M301.287 276.675C301.287 276.675 302.773 291.291 317.183 321.755C327.036 342.584 317.453 363.388 302.592 367.019C290.198 370.048 278.679 367.898 275.109 353.941C271.96 341.62 277.367 324.6 275.425 316.09C272.847 316.597 270.192 316.597 267.614 316.09C260.808 331.04 265.999 347.587 259.164 356.55C252.705 365.021 235.906 368.85 223.342 360.809C210.374 352.508 212.647 336.364 224.431 318.285C234.436 302.933 242.4 284.574 243.897 274.291C247.762 274.291 301.287 276.675 301.287 276.675Z" stroke="black" stroke-width="2.80384" stroke-linecap="round" stroke-linejoin="round"/>
<path d="M272.539 150.858C293.577 150.858 314.462 147.339 317.313 133.025C319.335 122.87 315.837 106.942 311.903 100.158L309.104 95.2818L272.541 94.887L235.975 97.113C235.975 97.113 219.867 112.957 228.325 130.98C234.54 144.233 251.501 150.858 272.539 150.858Z" fill="black" stroke="black" stroke-width="2.80384" stroke-linejoin="round"/>
<path d="M234.155 146.647C229.039 151.659 220.894 144.29 221.874 134.379C222.385 129.206 228.658 124.939 234.663 131.477C234.66 131.477 237.553 143.32 234.155 146.647Z" fill="#FFAB91"/>
<path d="M234.409 135.829C235.007 138.413 235.382 141.041 235.53 143.686C236.481 138.944 234.66 131.477 234.66 131.477C228.655 124.939 222.382 129.206 221.872 134.379C221.771 135.411 221.768 136.449 221.864 137.481C223.162 132.931 228.897 129.828 234.409 135.829Z" fill="#E88B74"/>
<path d="M234.155 146.647C229.039 151.659 220.894 144.29 221.874 134.379C222.385 129.206 228.658 124.939 234.663 131.477C234.66 131.477 237.553 143.32 234.155 146.647Z" stroke="black" stroke-width="2.80384" stroke-linejoin="round"/>
<path d="M230.689 139.14C230.506 138.595 230.266 138.07 229.974 137.572C229.692 137.07 229.337 136.611 228.919 136.21C228.52 135.824 228.032 135.538 227.496 135.374C226.938 135.249 226.357 135.266 225.808 135.423L225.773 135.431C225.692 135.45 225.608 135.438 225.536 135.398C225.465 135.358 225.411 135.293 225.387 135.215C225.363 135.138 225.37 135.055 225.406 134.982C225.442 134.909 225.506 134.853 225.583 134.825C226.241 134.554 226.96 134.457 227.668 134.542C228.38 134.669 229.049 134.963 229.619 135.399C230.17 135.818 230.656 136.314 231.06 136.871C231.473 137.419 231.826 138.008 232.114 138.628C232.191 138.808 232.194 139.009 232.121 139.191C232.049 139.372 231.907 139.518 231.726 139.598C231.545 139.678 231.339 139.685 231.152 139.618C230.966 139.552 230.813 139.416 230.727 139.241C230.715 139.214 230.705 139.188 230.696 139.161L230.689 139.14Z" fill="black"/>
<path d="M310.924 146.647C316.039 151.659 324.185 144.29 323.204 134.379C322.694 129.206 316.42 124.939 310.416 131.477C310.418 131.477 307.527 143.32 310.924 146.647Z" fill="#FFAB91"/>
<path d="M310.418 134.608C316.423 128.07 322.699 132.337 323.207 137.511C323.207 137.521 323.207 137.531 323.207 137.541C323.309 136.49 323.309 135.431 323.207 134.379C322.696 129.206 316.422 124.939 310.418 131.477C310.418 131.477 308.992 137.33 309.323 141.963C309.494 139.487 309.86 137.028 310.418 134.608V134.608Z" fill="#E88B74"/>
<path d="M310.924 146.647C316.039 151.659 324.185 144.29 323.204 134.379C322.694 129.206 316.42 124.939 310.416 131.477C310.418 131.477 307.527 143.32 310.924 146.647Z" stroke="black" stroke-width="2.80384" stroke-linejoin="round"/>
<path d="M312.959 138.648C313.22 138.07 313.548 137.523 313.936 137.018C314.315 136.514 314.76 136.061 315.26 135.67C315.774 135.281 316.363 134.996 316.991 134.832C317.613 134.689 318.259 134.681 318.884 134.807C318.949 134.818 319.007 134.852 319.047 134.904C319.088 134.955 319.107 135.019 319.101 135.083C319.095 135.147 319.065 135.207 319.016 135.25C318.967 135.293 318.904 135.317 318.838 135.316H318.807C318.269 135.284 317.73 135.365 317.227 135.554C316.744 135.758 316.306 136.053 315.937 136.421C315.571 136.804 315.258 137.232 315.004 137.693C314.749 138.147 314.546 138.627 314.398 139.124L314.394 139.139C314.368 139.233 314.323 139.322 314.262 139.399C314.201 139.477 314.125 139.542 314.038 139.59C313.951 139.639 313.856 139.671 313.757 139.683C313.658 139.696 313.557 139.689 313.46 139.663C313.364 139.638 313.274 139.594 313.195 139.534C313.116 139.474 313.049 139.4 313 139.315C312.95 139.23 312.918 139.136 312.905 139.039C312.892 138.942 312.899 138.843 312.925 138.749C312.934 138.714 312.945 138.681 312.959 138.648V138.648Z" fill="black"/>
<path d="M311.907 127.948C309.806 119.975 306.821 112.251 303.006 104.915L272.539 104.549L242.073 104.915C238.258 112.252 235.273 119.975 233.171 127.948C229.527 141.632 231.111 162.829 244.285 175.13C252.866 183.141 267.197 185.229 272.539 185.229C277.88 185.229 292.212 183.141 300.792 175.13C313.967 162.829 315.551 141.632 311.907 127.948Z" fill="#FFAB91"/>
<path d="M300.793 172.399C292.212 180.41 277.881 182.498 272.539 182.498C267.197 182.498 252.866 180.41 244.286 172.399C235.363 164.067 231.762 151.656 231.495 140.261C231.215 152.361 234.644 166.125 244.286 175.13C252.866 183.141 267.197 185.229 272.539 185.229C277.881 185.229 292.212 183.141 300.793 175.13C310.434 166.127 313.863 152.361 313.582 140.261C313.317 151.656 309.715 164.067 300.793 172.399Z" fill="#E88B74"/>
<path d="M233.544 126.586L242.073 104.915L241.261 103.431L250.11 105.164C250.11 105.164 264.013 101.82 264.52 101.82H278.898C280.208 101.82 299.661 103.431 300.04 103.802C300.419 104.174 308.059 115.785 308.059 115.785C308.059 115.785 310.571 121.221 311.271 125.665C285.452 131.785 264.294 111.865 264.294 111.865C264.294 111.865 251.422 111.328 243.883 109.51C241.568 113.125 233.544 126.588 233.544 126.588" fill="#E88B74"/>
<path d="M311.907 127.948C309.806 119.975 306.821 112.251 303.006 104.915L272.539 104.549L242.073 104.915C238.258 112.252 235.273 119.975 233.171 127.948C229.527 141.632 231.111 162.829 244.285 175.13C252.866 183.141 267.197 185.229 272.539 185.229C277.88 185.229 292.212 183.141 300.792 175.13C313.967 162.829 315.551 141.632 311.907 127.948Z" stroke="black" stroke-width="2.80384" stroke-linejoin="round"/>
<path d="M277.446 144.196C277.192 143.947 276.881 143.761 276.539 143.653C276.176 143.52 275.803 143.416 275.423 143.342C273.882 143.042 272.296 143.042 270.755 143.342C270.375 143.416 270.002 143.52 269.639 143.653C269.297 143.76 268.985 143.946 268.731 144.194L268.702 144.228C268.672 144.263 268.63 144.287 268.583 144.295C268.537 144.303 268.489 144.295 268.448 144.273C268.406 144.251 268.374 144.215 268.357 144.172C268.339 144.129 268.338 144.082 268.352 144.038C268.532 143.595 268.86 143.225 269.282 142.988C269.659 142.75 270.065 142.559 270.49 142.42C272.176 141.864 274.002 141.864 275.688 142.42C276.113 142.559 276.519 142.75 276.896 142.987C277.318 143.224 277.646 143.594 277.827 144.037C277.841 144.081 277.84 144.129 277.822 144.173C277.805 144.216 277.772 144.252 277.731 144.274C277.689 144.297 277.641 144.305 277.594 144.296C277.547 144.288 277.505 144.264 277.475 144.228L277.446 144.196Z" fill="black"/>
<path d="M256.522 150.593C257.569 151.563 258.755 152.378 260.043 153.012C261.329 153.665 262.679 154.186 264.074 154.569C269.708 156.088 275.658 156.084 281.29 154.555C282.682 154.171 284.031 153.648 285.314 152.994C286.599 152.36 287.782 151.545 288.825 150.575L288.832 150.568C288.912 150.495 289.016 150.454 289.125 150.454C289.234 150.453 289.339 150.494 289.419 150.567C289.498 150.641 289.546 150.741 289.552 150.847C289.559 150.954 289.523 151.059 289.453 151.141C288.43 152.277 287.227 153.245 285.89 154.007C284.561 154.759 283.155 155.372 281.696 155.837C275.83 157.646 269.539 157.641 263.676 155.824C262.218 155.357 260.815 154.742 259.488 153.989C258.154 153.227 256.954 152.259 255.935 151.123C255.87 151.046 255.837 150.948 255.843 150.849C255.849 150.75 255.894 150.656 255.967 150.588C256.041 150.52 256.139 150.481 256.24 150.481C256.342 150.48 256.44 150.518 256.514 150.585L256.522 150.593Z" fill="black"/>
<path d="M257.747 130.301C259.841 130.301 261.539 128.638 261.539 126.586C261.539 124.534 259.841 122.87 257.747 122.87C255.652 122.87 253.954 124.534 253.954 126.586C253.954 128.638 255.652 130.301 257.747 130.301Z" fill="black"/>
<path d="M248.708 122.656C249.153 121.552 249.841 120.558 250.721 119.743C251.605 118.915 252.633 118.248 253.756 117.774C254.862 117.306 256.03 116.994 257.226 116.849C258.417 116.687 259.627 116.719 260.807 116.942C260.991 116.979 261.155 117.078 261.271 117.221C261.387 117.365 261.448 117.544 261.442 117.727C261.437 117.91 261.366 118.085 261.241 118.222C261.117 118.359 260.947 118.448 260.762 118.475L260.688 118.485C259.68 118.626 258.602 118.79 257.59 119C256.58 119.211 255.585 119.491 254.615 119.837C253.655 120.179 252.737 120.622 251.874 121.157C250.991 121.724 250.164 122.372 249.404 123.091L249.37 123.121C249.299 123.182 249.209 123.218 249.114 123.223C249.02 123.228 248.926 123.201 248.849 123.147C248.772 123.093 248.716 123.015 248.69 122.926C248.664 122.837 248.67 122.741 248.707 122.656H248.708Z" fill="black"/>
<path d="M289.032 130.301C291.126 130.301 292.824 128.638 292.824 126.586C292.824 124.534 291.126 122.87 289.032 122.87C286.937 122.87 285.24 124.534 285.24 126.586C285.24 128.638 286.937 130.301 289.032 130.301Z" fill="black"/>
<path d="M297.28 121.756L287.231 118.227" stroke="black" stroke-width="4.20576" stroke-linecap="round" stroke-linejoin="round"/>
<path d="M268.842 101.818C268.842 101.818 259.837 105.826 271.776 112.221C280.243 116.756 303.895 128.398 313.603 123.94C323.311 119.482 317.313 110.983 315.543 109.249C313.268 111.478 273.933 106.806 268.842 101.818Z" fill="#C65258"/>
<g style="mix-blend-mode:multiply" opacity="0.22">
<path d="M311.829 119.674C315.911 117.8 317.58 115.307 317.964 112.798C317.354 111.496 316.537 110.297 315.543 109.247C313.268 111.475 273.933 106.804 268.842 101.816C268.842 101.816 266.699 106.366 268.542 109.917C291.287 121.756 301.456 124.439 311.829 119.674Z" fill="#C65258"/>
</g>
<path d="M268.842 101.818C268.842 101.818 259.837 105.826 271.776 112.221C280.243 116.756 303.895 128.398 313.603 123.94C323.311 119.482 317.313 110.983 315.543 109.249C313.268 111.478 273.933 106.806 268.842 101.818Z" stroke="black" stroke-width="2.80384" stroke-linejoin="round"/>
<path d="M315.305 114.45C308.007 118.227 294.611 113.088 278.962 110.487C263.312 107.886 232.013 107.515 225.83 97.856C219.648 88.1973 228.274 66.9178 251.72 69.2498C274.132 71.4785 293.552 79.7756 315.305 92.6546C324.951 98.368 321.978 110.996 315.305 114.45Z" fill="#814F5A"/>
<g style="mix-blend-mode:multiply" opacity="0.13">
<path d="M315.86 106.106C308.723 109.8 295.624 104.774 280.319 102.231C265.015 99.6872 234.407 99.3247 228.361 89.8785C226.786 87.4171 226.203 84.182 226.595 80.7868C223.28 86.6698 223.019 93.4644 225.83 97.8565C232.013 107.516 263.312 107.887 278.962 110.488C294.611 113.089 308.007 118.226 315.305 114.451C319.801 112.124 322.608 105.632 321.019 99.8965C319.998 102.618 318.155 104.917 315.86 106.106Z" fill="#814F5A"/>
</g>
<path d="M315.305 114.45C308.007 118.227 294.611 113.088 278.962 110.487C263.312 107.886 232.013 107.515 225.83 97.856C219.648 88.1973 228.274 66.9178 251.72 69.2498C274.132 71.4785 293.552 79.7756 315.305 92.6546C324.951 98.368 321.978 110.996 315.305 114.45Z" stroke="black" stroke-width="2.80384" stroke-linejoin="round"/>
<path d="M253.178 196.98C257.457 198.85 263.336 216.404 266.874 232.424C271.578 253.722 273.058 287.486 264.232 289.351C252.654 291.798 236.979 284.855 236.979 281.931C236.979 279.006 245.527 255.798 243.52 234.65C241.623 214.642 236.979 203.93 236.979 202.22C236.979 200.511 249.958 195.573 253.178 196.98Z" fill="#EE406D"/>
<g style="mix-blend-mode:multiply" opacity="0.3">
<path d="M244.424 236.774C242.527 216.765 237.882 206.054 237.882 204.345C237.882 202.635 250.861 197.7 254.082 199.107C255.651 199.791 257.431 202.587 259.235 206.633C257.128 201.447 255.008 197.777 253.179 196.979C249.958 195.571 236.979 200.507 236.979 202.216C236.979 203.925 241.624 214.637 243.521 234.646C245.522 255.793 236.979 278.999 236.979 281.927C236.979 282.36 237.33 282.881 237.953 283.446C238.722 278.78 246.327 256.857 244.424 236.774Z" fill="#EE406D"/>
</g>
<g style="mix-blend-mode:multiply" opacity="0.3">
<path d="M247.23 234.972C245.079 223.603 241.706 212.488 237.168 201.814C237.062 201.925 236.996 202.067 236.979 202.218C236.979 203.928 241.623 214.639 243.52 234.647C245.522 255.794 236.979 279.001 236.979 281.928C236.979 283.282 240.333 285.493 245.082 287.238C244.913 283.623 251.619 257.675 247.23 234.972Z" fill="#EE406D"/>
</g>
<path d="M253.178 196.98C257.457 198.85 263.336 216.404 266.874 232.424C271.578 253.722 273.058 287.486 264.232 289.351C252.654 291.798 236.979 284.855 236.979 281.931C236.979 279.006 245.527 255.798 243.52 234.65C241.623 214.642 236.979 203.93 236.979 202.22C236.979 200.511 249.958 195.573 253.178 196.98Z" stroke="black" stroke-width="2.80384" stroke-linejoin="round"/>
<path d="M291.761 197.425C287.483 199.294 281.604 216.849 278.066 232.869C273.362 254.167 271.882 287.93 280.708 289.796C292.286 292.242 307.961 285.301 307.961 282.376C307.961 279.451 299.413 256.243 301.42 235.095C303.317 215.086 307.961 204.375 307.961 202.666C307.961 200.956 294.981 196.017 291.761 197.425Z" fill="#EE406D"/>
<g style="mix-blend-mode:multiply" opacity="0.3">
<path d="M301.418 235.091C303.315 215.082 307.96 204.371 307.96 202.662C307.96 200.953 294.981 196.017 291.76 197.424C291.434 197.577 291.134 197.778 290.87 198.019C296.172 198.691 304.882 202.299 304.882 203.743C304.882 205.562 299.942 216.954 297.925 238.237C296.116 257.313 302.377 277.958 304.322 285.691C306.57 284.465 307.96 283.241 307.96 282.372C307.96 279.445 299.414 256.239 301.418 235.091Z" fill="#EE406D"/>
</g>
<path d="M291.761 197.425C287.483 199.294 281.604 216.849 278.066 232.869C273.362 254.167 271.882 287.93 280.708 289.796C292.286 292.242 307.961 285.301 307.961 282.376C307.961 279.451 299.413 256.243 301.42 235.095C303.317 215.086 307.961 204.375 307.961 202.666C307.961 200.956 294.981 196.017 291.761 197.425Z" stroke="black" stroke-width="2.80384" stroke-linejoin="round"/>
<path d="M304.484 247.544C307.371 251.96 313.452 257.468 321.201 253.104C327.572 249.516 330.301 241.492 332.411 233.649C336.021 220.234 328.112 218.725 328.112 218.725C328.112 218.725 321.181 221.613 320.226 222.6C319.271 223.587 318.315 223.196 316.587 227.37C314.858 231.544 315.221 237.882 315.221 237.882C315.221 237.882 313.892 223.692 313.685 220.118C313.046 209.046 307.661 202.55 306.51 203.741C305.358 204.932 293.526 230.785 304.484 247.544Z" fill="white"/>
<path d="M313.592 218.89C313.28 214.724 312.087 210.668 310.089 206.978C310.389 208.529 310.585 210.098 310.675 211.674C310.881 215.248 312.21 229.439 312.21 229.439C312.21 229.439 311.847 223.1 313.576 218.926L313.592 218.89Z" fill="#EFEFEF"/>
<path d="M330.315 219.828C330.198 221.647 329.891 223.449 329.398 225.205C327.288 233.049 324.56 241.072 318.188 244.66C310.441 249.024 304.36 243.516 301.471 239.1C301.139 238.593 300.83 238.075 300.539 237.552C301.188 241.099 302.527 244.492 304.482 247.544C307.369 251.96 313.45 257.468 321.199 253.104C327.57 249.516 330.298 241.492 332.409 233.649C334.706 225.114 332.34 221.402 330.315 219.828Z" fill="#EFEFEF"/>
<path d="M304.484 247.544C307.371 251.96 313.452 257.468 321.201 253.104C327.572 249.516 330.301 241.492 332.411 233.649C336.021 220.234 328.112 218.725 328.112 218.725C328.112 218.725 321.181 221.613 320.226 222.6C319.271 223.587 318.315 223.196 316.587 227.37C314.858 231.544 315.221 237.882 315.221 237.882C315.221 237.882 313.892 223.692 313.685 220.118C313.046 209.046 307.661 202.55 306.51 203.741C305.358 204.932 293.526 230.785 304.484 247.544Z" stroke="black" stroke-width="2.80384" stroke-linejoin="round"/>
<path d="M266.334 315.359C266.334 315.359 271.653 318.147 278.809 314.43" stroke="black" stroke-width="2.80384" stroke-linecap="round" stroke-linejoin="round"/>
<path d="M217.408 296.132C214.874 292.539 208.388 281.003 211.487 268.996C216.139 250.96 239.007 236.348 257.078 236.464C272.675 236.563 272.675 236.563 295.874 243.004C293.823 266.541 293.823 266.541 288.405 280.869C282.127 297.47 260.094 313.261 241.23 311.151C228.665 309.745 219.942 299.724 217.408 296.132Z" fill="#FBAD62"/>
<g style="mix-blend-mode:multiply" opacity="0.4">
<path d="M212.396 259.276C212.396 259.276 214.309 269.682 219.015 274.293C221.619 276.843 223.509 277.876 224.678 278.289C224.852 278.348 225.036 278.369 225.218 278.353C225.401 278.336 225.578 278.281 225.737 278.193C225.897 278.104 226.035 277.983 226.143 277.838C226.251 277.693 226.326 277.527 226.364 277.351L227.044 274.293C227.044 274.293 236.089 275.116 240.398 274.293C243.085 276.924 247.778 278.032 252.836 276.822C257.394 275.731 270.635 267.882 270.635 266.096C270.635 264.31 236.895 263.302 236.895 263.302L212.396 259.276Z" fill="#FBAD62"/>
</g>
<g style="mix-blend-mode:multiply" opacity="0.4">
<path d="M288.943 273.061C282.664 289.662 260.632 305.454 241.768 303.343C229.206 301.939 220.482 291.917 217.948 288.325C216.04 285.62 211.889 278.406 211.283 269.881C208.712 281.568 214.939 292.63 217.411 296.134C219.945 299.726 228.668 309.747 241.23 311.152C260.097 313.262 282.13 297.471 288.406 280.869C293.824 266.537 293.824 266.537 295.873 243.005L295.726 242.964C294.278 258.954 293.687 260.516 288.943 273.061Z" fill="#FBAD62"/>
</g>
<path d="M217.408 296.132C214.874 292.539 208.388 281.003 211.487 268.996C216.139 250.96 239.007 236.348 257.078 236.464C272.675 236.563 272.675 236.563 295.874 243.004C293.823 266.541 293.823 266.541 288.405 280.869C282.127 297.47 260.094 313.261 241.23 311.151C228.665 309.745 219.942 299.724 217.408 296.132Z" stroke="black" stroke-width="2.80384" stroke-linecap="round" stroke-linejoin="round"/>
<path d="M275.557 265.523L267.188 253.661L346.417 201.776L353.105 211.256L275.557 265.523Z" fill="#B55957"/>
<g style="mix-blend-mode:multiply" opacity="0.3">
<path d="M350.691 207.834L274.681 261.025L268.76 252.632L267.188 253.661L275.557 265.523L353.105 211.256L350.691 207.834Z" fill="#B55957"/>
</g>
<path d="M275.557 265.523L267.188 253.661L346.417 201.776L353.105 211.256L275.557 265.523Z" stroke="black" stroke-width="2.80384" stroke-linecap="round" stroke-linejoin="round"/>
<path d="M242.594 292.351C237.21 287.2 232.895 281.076 229.89 274.318C229.707 273.815 230.726 273.126 231.141 273.47C236.532 278.613 240.855 284.732 243.869 291.487C244.089 292.083 243.086 292.762 242.594 292.351Z" fill="black"/>
<path d="M273.832 274.337C278.134 271.424 278.114 264.091 273.787 257.958C269.461 251.825 262.466 249.215 258.164 252.128C253.862 255.041 253.881 262.374 258.208 268.507C262.535 274.639 269.53 277.25 273.832 274.337Z" fill="#5F2E50"/>
<path d="M274.166 268.8C269.864 271.715 263.498 269.994 258.542 262.97C256.956 260.82 255.845 258.369 255.282 255.775C254.021 259.098 254.791 263.663 258.208 268.506C263.164 275.531 269.529 277.251 273.831 274.336C276.591 272.469 277.82 269.146 277.048 265.153C276.496 266.632 275.489 267.906 274.166 268.8V268.8Z" fill="black"/>
<path d="M273.832 274.337C278.134 271.424 278.114 264.091 273.787 257.958C269.461 251.825 262.466 249.215 258.164 252.128C253.862 255.041 253.881 262.374 258.208 268.507C262.535 274.639 269.53 277.25 273.832 274.337Z" stroke="black" stroke-width="2.80384" stroke-linecap="round" stroke-linejoin="round"/>
<path d="M352.248 188.022L354.278 191.433" stroke="black" stroke-width="4.20576" stroke-linecap="round" stroke-linejoin="round"/>
<path d="M354.674 186.39L354.243 185.666C353.947 185.169 353.296 185.001 352.788 185.29L349.556 187.137C349.048 187.427 348.877 188.065 349.173 188.562L349.603 189.286C349.899 189.783 350.551 189.951 351.058 189.661L354.291 187.815C354.798 187.525 354.97 186.887 354.674 186.39Z" fill="black"/>
<path d="M342.779 191.655L345.594 196.429" stroke="black" stroke-width="4.20576" stroke-linecap="round" stroke-linejoin="round"/>
<path d="M345.205 190.022L344.775 189.299C344.479 188.801 343.827 188.633 343.32 188.923L340.087 190.77C339.58 191.06 339.408 191.698 339.704 192.195L340.135 192.919C340.431 193.416 341.082 193.584 341.59 193.294L344.822 191.447C345.33 191.158 345.501 190.52 345.205 190.022Z" fill="black"/>
<path d="M368.299 210.774L365.759 207.708" stroke="black" stroke-width="4.20576" stroke-linecap="round" stroke-linejoin="round"/>
<path d="M366.16 212.75L366.699 213.401C367.069 213.848 367.739 213.916 368.195 213.554L371.101 211.244C371.557 210.882 371.627 210.225 371.257 209.779L370.718 209.128C370.348 208.681 369.678 208.613 369.222 208.975L366.316 211.285C365.86 211.647 365.79 212.304 366.16 212.75Z" fill="black"/>
<path d="M361.483 218.168L357.92 213.9" stroke="black" stroke-width="4.20576" stroke-linecap="round" stroke-linejoin="round"/>
<path d="M359.344 220.145L359.883 220.795C360.253 221.242 360.923 221.311 361.379 220.948L364.285 218.638C364.741 218.276 364.811 217.62 364.441 217.173L363.902 216.522C363.532 216.075 362.862 216.007 362.406 216.369L359.5 218.679C359.044 219.041 358.974 219.698 359.344 220.145Z" fill="black"/>
<path d="M372.778 195.475L368.439 189.327C367.615 188.134 366.363 187.287 364.931 186.954C363.5 186.621 361.993 186.827 360.709 187.53L337.391 201.07C336.91 201.339 336.489 201.7 336.154 202.133C335.819 202.565 335.578 203.06 335.444 203.587L333.585 211.735L339.059 219.495L347.499 220.673C348.049 220.736 348.607 220.69 349.139 220.536C349.67 220.382 350.164 220.123 350.591 219.777L371.762 203.195C372.887 202.266 373.616 200.958 373.804 199.529C373.993 198.099 373.626 196.653 372.778 195.475V195.475Z" fill="#FBAD62"/>
<g style="mix-blend-mode:multiply" opacity="0.4">
<path d="M373.846 197.365L372.778 195.475C372.982 197.13 370.232 199.126 368.684 200.2L347.512 214.89C346.617 215.519 345.516 215.802 344.421 215.685L335.982 214.641L333.805 211.907L333.585 212.76L339.059 219.632L347.499 220.676C348.594 220.793 349.696 220.51 350.591 219.881L370.628 204.08C372.965 202.46 375.583 199.545 373.846 197.365Z" fill="#FBAD62"/>
</g>
<path d="M372.778 195.475L368.439 189.327C367.615 188.134 366.363 187.287 364.931 186.954C363.5 186.621 361.993 186.827 360.709 187.53L337.391 201.07C336.91 201.339 336.489 201.7 336.154 202.133C335.819 202.565 335.578 203.06 335.444 203.587L333.585 211.735L339.059 219.495L347.499 220.673C348.049 220.736 348.607 220.69 349.139 220.536C349.67 220.382 350.164 220.123 350.591 219.777L371.762 203.195C372.887 202.266 373.616 200.958 373.804 199.529C373.993 198.099 373.626 196.653 372.778 195.475V195.475Z" stroke="black" stroke-width="4.20576" stroke-linecap="round" stroke-linejoin="round"/>
<path d="M210.752 289.927C212.187 295.843 215.836 301.017 220.977 304.423C221.837 302.816 222.233 301.009 222.12 299.198C222.007 297.387 221.391 295.64 220.338 294.147C219.285 292.654 217.835 291.472 216.146 290.728C214.456 289.984 212.591 289.707 210.752 289.927V289.927Z" fill="#B55957"/>
<path d="M210.752 289.927C212.187 295.843 215.836 301.017 220.977 304.423C221.837 302.816 222.233 301.009 222.12 299.198C222.007 297.387 221.391 295.64 220.338 294.147C219.285 292.654 217.835 291.472 216.146 290.728C214.456 289.984 212.591 289.707 210.752 289.927V289.927Z" stroke="black" stroke-width="2.80384" stroke-linecap="round" stroke-linejoin="round"/>
<path d="M266.893 263.301C268.371 262.785 269.284 260.735 268.678 258.921C268.104 257.203 265.756 257.478 265.756 257.478C265.756 257.478 268.08 253.581 264.704 252.156C262.123 251.066 251.666 259.863 249.802 256.732C251.124 254.083 251.602 251.105 251.174 248.186C247.762 244.844 241.994 253.395 241.994 260.096C235.416 260.051 229.757 257.886 227.58 253.496L221.107 267.188C226.526 270.327 232.227 272.076 241.496 270.916C243.567 274.701 251.744 273.99 256.91 272.699C263.156 271.14 266.444 269.612 268.172 267.554C270.017 265.356 268.789 263.301 266.893 263.301Z" fill="#FFAB91"/>
<path d="M268.862 260.292C268.599 260.561 268.278 260.769 267.922 260.9C268.202 260.9 268.481 260.95 268.744 261.046C268.808 260.799 268.848 260.546 268.862 260.292Z" fill="#E88B74"/>
<path d="M257.939 270.3C252.774 271.59 244.597 272.302 242.526 268.517C233.305 269.671 227.614 267.945 222.22 264.836L221.107 267.19C226.526 270.329 232.228 272.078 241.497 270.919C243.568 274.703 251.745 273.993 256.91 272.701C263.157 271.142 266.444 269.614 268.172 267.556C268.751 266.937 269.074 266.13 269.077 265.291C267.319 267.279 264.045 268.773 257.939 270.3Z" fill="#E88B74"/>
<path d="M243.968 252.562C243.139 254.175 242.551 255.896 242.222 257.673C242.488 257.682 242.752 257.693 243.022 257.695C243.051 255.945 243.371 254.211 243.968 252.562V252.562Z" fill="#E88B74"/>
<path d="M266.893 263.301C268.371 262.785 269.284 260.735 268.678 258.921C268.104 257.203 265.756 257.478 265.756 257.478C265.756 257.478 268.08 253.581 264.704 252.156C262.123 251.066 251.666 259.863 249.802 256.732C251.124 254.083 251.602 251.105 251.174 248.186C247.762 244.844 241.994 253.395 241.994 260.096C235.416 260.051 229.757 257.886 227.58 253.496L221.107 267.188C226.526 270.327 232.227 272.076 241.496 270.916C243.567 274.701 251.744 273.99 256.91 272.699C263.156 271.14 266.444 269.612 268.172 267.554C270.017 265.356 268.789 263.301 266.893 263.301Z" stroke="black" stroke-width="2.80384" stroke-linejoin="round"/>
<path d="M257.624 261.072C261.689 260.272 265.754 257.478 265.754 257.478Z" fill="#FFAB91"/>
<path d="M257.624 261.072C261.689 260.272 265.754 257.478 265.754 257.478" stroke="black" stroke-width="2.80384" stroke-linecap="round" stroke-linejoin="round"/>
<path d="M258.718 266.095C262.406 265.749 266.893 263.301 266.893 263.301Z" fill="#FFAB91"/>
<path d="M258.718 266.095C262.406 265.749 266.893 263.301 266.893 263.301" stroke="black" stroke-width="2.80384" stroke-linecap="round" stroke-linejoin="round"/>
<path d="M231.48 255.609C230.569 254.803 229.803 254.631 228.431 252.842C218.285 239.628 236.167 224.559 242.319 225.05C246.743 209.855 237.295 203.694 237.295 203.694C216.781 213.441 204.673 230.86 209.221 253.494C211.146 263.078 216.5 269.485 225.35 272.073C225.864 267.242 229.568 260.543 231.48 255.609Z" fill="white"/>
<path d="M210.816 248.029C209.568 242.164 209.544 236.111 210.745 230.236C208.163 237.159 207.505 244.955 209.221 253.494C211.146 263.078 216.5 269.485 225.35 272.073C225.614 270.187 226.106 268.338 226.816 266.566C218.045 263.953 212.732 257.566 210.816 248.029Z" fill="#EFEFEF"/>
<path d="M227.046 237.476C230.529 230.197 238.583 224.752 242.319 225.05C242.848 223.265 243.206 221.435 243.388 219.585C238.489 219.829 227.992 228.003 227.046 237.476Z" fill="#EFEFEF"/>
<path d="M227.035 265.983C228.412 262.425 230.292 258.676 231.48 255.609C231.288 255.439 231.102 255.299 230.916 255.164C229.271 258.835 227.535 262.764 227.035 265.983Z" fill="#EFEFEF"/>
<path d="M231.48 255.609C230.569 254.803 229.803 254.631 228.431 252.842C218.285 239.628 236.167 224.559 242.319 225.05C246.743 209.855 237.295 203.694 237.295 203.694C216.781 213.441 204.673 230.86 209.221 253.494C211.146 263.078 216.5 269.485 225.35 272.073C225.864 267.242 229.568 260.543 231.48 255.609Z" stroke="black" stroke-width="2.80384" stroke-linejoin="round"/>
<path d="M319.653 227.057C321.887 232.242 322.895 232.921 320.644 235.127C319.715 236.036 322.654 237.409 324.669 236.352C326.684 235.295 327.768 234.244 327.768 232.261C327.768 231.502 327.261 225.625 325.516 224.127C323.08 222.035 317.946 223.089 319.653 227.057Z" fill="#FFAB91"/>
<path d="M327.218 228.103C326.782 228.569 326.948 229.359 325.607 230.673C324.51 231.748 322.557 231.959 321.725 231.83C322.136 233.146 321.894 233.902 320.643 235.127C319.714 236.036 322.653 237.409 324.668 236.352C325.468 235.967 326.193 235.45 326.812 234.823C326.923 232.996 327.137 231.176 327.454 229.372C327.389 228.96 327.31 228.536 327.218 228.103Z" fill="#E88B74"/>
<path d="M327.408 225.872C327.408 232.27 327.654 234.254 329.086 233.968C330.517 233.682 331.826 233.291 332.339 232.532C332.852 231.774 333.753 230.452 333.583 226.942C333.546 224.94 333.273 222.95 332.769 221.01C332.333 218.909 327.408 219.146 327.408 225.872Z" fill="#FFAB91"/>
<path d="M327.461 229.625C327.587 233.058 327.986 234.187 329.087 233.968C330.521 233.683 331.828 233.291 332.341 232.532C332.854 231.774 333.754 230.452 333.585 226.942C333.576 226.762 333.568 226.595 333.559 226.431C330.533 231.218 327.893 229.786 327.461 229.625Z" fill="#E88B74"/>
<path d="M337.247 217.486C335.363 217.479 333.982 219.198 334.163 223.765C334.42 230.325 334.974 230.749 336.602 230.665C339.22 230.531 340.242 223.075 340.03 221.585C339.393 217.116 338.669 217.491 337.247 217.486Z" fill="#FFAB91"/>
<path d="M339.606 225.674C337.838 226.469 335.581 227.44 334.29 226.175C334.596 230.423 335.202 230.738 336.6 230.666C338.11 230.588 339.088 228.074 339.606 225.674Z" fill="#E88B74"/>
<path d="M319.653 227.057C321.887 232.242 322.895 232.921 320.644 235.127C319.715 236.036 322.654 237.409 324.669 236.352C326.684 235.295 327.768 234.244 327.768 232.261C327.768 231.502 327.261 225.625 325.516 224.127C323.08 222.035 317.946 223.089 319.653 227.057Z" stroke="black" stroke-width="2.80384" stroke-linejoin="round"/>
<path d="M327.408 225.872C327.408 232.27 327.654 234.254 329.086 233.968C330.517 233.682 331.826 233.291 332.339 232.532C332.852 231.774 333.753 230.452 333.583 226.942C333.546 224.94 333.273 222.95 332.769 221.01C332.333 218.909 327.408 219.146 327.408 225.872Z" stroke="black" stroke-width="2.80384" stroke-linejoin="round"/>
<path d="M337.247 217.486C335.363 217.479 333.982 219.198 334.163 223.765C334.42 230.325 334.974 230.749 336.602 230.665C339.22 230.531 340.242 223.075 340.03 221.585C339.393 217.116 338.669 217.491 337.247 217.486Z" stroke="black" stroke-width="2.80384" stroke-linejoin="round"/>
<path d="M323.144 209.962C322.725 212.4 319.617 216.852 320.069 219.03C322.576 217.48 326.399 216.075 328.698 212.299C329.676 210.695 329.549 207.241 328.006 206.141C326.012 204.722 323.513 207.81 323.144 209.962Z" fill="#FFAB91" stroke="black" stroke-width="2.80384" stroke-linejoin="round"/>
<path opacity="0.6" d="M238.055 77.8188C235.9 79.315 233.212 82.044 232.619 85.6692" stroke="white" stroke-width="2.80384" stroke-linecap="round" stroke-linejoin="round"/>
<path opacity="0.6" d="M241.569 76.1414C241.102 76.3034 240.645 76.4922 240.2 76.7069" stroke="white" stroke-width="2.80384" stroke-linecap="round" stroke-linejoin="round"/>
<path d="M265.5 164.734C266.624 164.216 267.813 163.842 269.035 163.621C270.252 163.385 271.489 163.264 272.729 163.258C273.349 163.249 273.973 163.295 274.589 163.329C275.206 163.416 275.827 163.452 276.433 163.598C277.654 163.824 278.839 164.204 279.958 164.731C280.018 164.758 280.066 164.805 280.093 164.864C280.121 164.922 280.126 164.988 280.108 165.05C280.09 165.112 280.051 165.166 279.996 165.202C279.942 165.238 279.876 165.254 279.811 165.247H279.795C278.591 165.118 277.431 164.934 276.254 164.865C275.082 164.775 273.911 164.724 272.737 164.745C270.373 164.769 268.013 164.936 265.671 165.246H265.654C265.589 165.254 265.523 165.239 265.468 165.203C265.413 165.168 265.373 165.115 265.354 165.053C265.335 164.991 265.34 164.925 265.366 164.866C265.392 164.807 265.439 164.759 265.498 164.731L265.5 164.734Z" fill="#E88B74"/>
</svg>
