<svg width="934" height="408" viewBox="0 0 934 408" fill="none" xmlns="http://www.w3.org/2000/svg">
<path d="M829.699 128.117C833.738 128.117 837.012 124.541 837.012 120.13C837.012 115.719 833.738 112.142 829.699 112.142C825.66 112.142 822.386 115.719 822.386 120.13C822.386 124.541 825.66 128.117 829.699 128.117Z" fill="white"/>
<path d="M840.617 103.592C844.656 103.592 847.93 100.016 847.93 95.6049C847.93 91.1935 844.656 87.6174 840.617 87.6174C836.578 87.6174 833.304 91.1935 833.304 95.6049C833.304 100.016 836.578 103.592 840.617 103.592Z" fill="white"/>
<path d="M854.007 122.492C858.046 122.492 861.32 118.916 861.32 114.505C861.32 110.094 858.046 106.517 854.007 106.517C849.968 106.517 846.694 110.094 846.694 114.505C846.694 118.916 849.968 122.492 854.007 122.492Z" fill="white"/>
<path d="M1339.55 281.342C1334.61 275.267 1329.56 269.192 1324.31 263.117C1330.07 256.817 1335.74 250.18 1340.37 242.642C1341.61 240.73 1341.09 238.03 1339.34 236.792C1337.59 235.442 1335.12 236.005 1333.99 237.917C1329.66 244.892 1324.61 250.967 1319.05 256.93C1314.11 251.305 1309.06 245.68 1303.91 240.167C1302.37 238.48 1299.89 238.48 1298.45 240.167C1296.91 241.855 1296.91 244.555 1298.45 246.13C1303.5 251.53 1308.44 257.155 1313.39 262.78C1312.25 264.017 1311.02 265.255 1309.78 266.38C1305.56 270.655 1301.13 275.155 1297.01 279.88C1295.57 281.567 1295.57 284.155 1297.01 285.842C1298.56 287.417 1301.03 287.417 1302.47 285.73C1306.49 281.23 1310.81 276.842 1314.93 272.567C1316.17 271.33 1317.3 270.092 1318.54 268.855C1323.58 274.817 1328.63 280.78 1333.58 286.742C1333.68 286.855 1333.68 286.855 1333.78 286.967C1335.22 288.542 1337.59 288.655 1339.14 287.192C1340.89 285.842 1340.99 283.142 1339.55 281.342ZM123.016 226.667L122.604 223.742C121.059 211.255 120.338 197.642 120.235 182.117C120.235 175.93 120.235 169.18 120.441 161.305C120.441 160.517 120.441 159.617 120.441 158.717C120.441 153.092 120.441 146.117 124.458 143.53C126.724 142.067 129.711 142.405 133.213 144.542C139.084 148.03 146.809 154.33 151.238 161.305C156.903 170.08 158.757 180.317 156.388 190.217C153.092 204.055 140.938 225.092 125.488 226.33L123.016 226.667ZM127.651 148.592C127.445 148.592 127.342 148.592 127.239 148.705C127.136 148.817 126.518 149.267 126.106 151.742C125.797 153.88 125.797 156.467 125.797 158.83C125.797 159.73 125.797 160.742 125.797 161.53C125.591 169.292 125.591 175.93 125.591 182.117C125.694 196.18 126.312 208.555 127.651 220.03C138.981 216.992 148.663 199.667 151.341 188.755C153.298 180.655 151.753 172.105 147.015 164.792C142.998 158.605 135.788 152.867 130.638 149.83C129.196 148.93 128.166 148.592 127.651 148.592ZM317.377 15.3924C317.274 15.3924 317.171 15.3924 316.965 15.2799C314.493 14.4924 312.845 14.2674 310.064 14.4924C309.343 14.4924 308.725 13.9299 308.622 13.1424C308.622 12.3549 309.137 11.6799 309.858 11.5674C313.051 11.3424 314.905 11.5674 317.686 12.4674C318.407 12.6924 318.819 13.4799 318.613 14.2674C318.407 14.9424 317.892 15.3924 317.377 15.3924ZM306.871 26.3049C306.356 26.3049 305.841 25.9674 305.635 25.4049C304.811 23.0424 304.399 20.5674 304.296 17.9799C304.296 17.1924 304.811 16.5174 305.532 16.5174C306.253 16.5174 306.871 17.0799 306.871 17.8674C306.974 20.1174 307.386 22.2549 308.004 24.3924C308.21 25.1799 307.901 25.9674 307.18 26.1924C307.18 26.3049 306.974 26.3049 306.871 26.3049ZM294.511 19.4424C294.099 19.4424 293.687 19.2174 293.481 18.8799C293.069 18.2049 293.172 17.3049 293.687 16.8549C295.541 15.2799 297.498 13.9299 299.661 12.8049C300.279 12.4674 301.103 12.8049 301.412 13.4799C301.721 14.1549 301.412 15.0549 300.794 15.3924C298.837 16.4049 296.983 17.6424 295.335 19.1049C295.129 19.3299 294.82 19.4424 294.511 19.4424ZM301.103 9.2049C300.588 9.2049 300.176 8.8674 299.867 8.4174C299.352 7.2924 298.631 6.2799 297.395 4.5924C297.086 4.1424 296.674 3.5799 296.262 3.0174C295.85 2.3424 295.953 1.4424 296.468 0.992399C297.086 0.542399 297.91 0.6549 298.322 1.2174C298.734 1.7799 299.146 2.3424 299.455 2.7924C300.794 4.5924 301.618 5.7174 302.236 7.1799C302.545 7.8549 302.236 8.7549 301.618 9.0924C301.515 9.2049 301.309 9.2049 301.103 9.2049ZM307.489 8.8674C307.18 8.8674 306.974 8.7549 306.665 8.6424C306.047 8.1924 305.944 7.2924 306.356 6.6174C307.592 4.7049 308.725 2.7924 309.755 0.767399C310.064 0.0923986 310.888 -0.245101 311.506 0.204899C312.124 0.542399 312.433 1.4424 312.021 2.1174C310.991 4.2549 309.755 6.3924 308.416 8.4174C308.21 8.6424 307.901 8.8674 307.489 8.8674ZM845.767 377.642C845.664 377.642 845.561 377.642 845.355 377.53C842.883 376.742 841.235 376.517 838.454 376.742C837.733 376.742 837.115 376.18 837.012 375.392C837.012 374.605 837.527 373.93 838.248 373.817C841.441 373.592 843.295 373.817 846.076 374.717C846.797 374.942 847.209 375.73 847.003 376.517C846.797 377.192 846.282 377.642 845.767 377.642ZM835.261 388.555C834.746 388.555 834.231 388.217 834.025 387.655C833.201 385.292 832.789 382.817 832.686 380.23C832.686 379.442 833.201 378.767 833.922 378.767C834.643 378.767 835.261 379.33 835.261 380.117C835.364 382.367 835.776 384.505 836.394 386.642C836.6 387.43 836.291 388.217 835.57 388.442C835.57 388.555 835.364 388.555 835.261 388.555ZM822.901 381.692C822.489 381.692 822.077 381.467 821.871 381.13C821.459 380.455 821.562 379.555 822.077 379.105C823.931 377.53 825.888 376.18 828.051 375.055C828.669 374.717 829.493 375.055 829.802 375.73C830.111 376.405 829.802 377.305 829.184 377.642C827.227 378.655 825.373 379.892 823.725 381.355C823.519 381.58 823.21 381.692 822.901 381.692ZM829.493 371.455C828.978 371.455 828.566 371.117 828.257 370.667C827.742 369.542 827.021 368.53 825.785 366.842C825.476 366.392 825.064 365.83 824.652 365.267C824.24 364.592 824.343 363.692 824.858 363.242C825.476 362.792 826.3 362.905 826.712 363.467C827.124 364.03 827.536 364.592 827.845 365.042C829.184 366.842 830.008 367.967 830.626 369.43C830.935 370.105 830.626 371.005 830.008 371.342C829.905 371.455 829.699 371.455 829.493 371.455ZM835.879 371.117C835.57 371.117 835.364 371.005 835.055 370.892C834.437 370.442 834.334 369.542 834.746 368.867C835.982 366.955 837.115 365.042 838.145 363.017C838.454 362.342 839.278 362.005 839.896 362.455C840.514 362.792 840.823 363.692 840.411 364.367C839.381 366.505 838.145 368.642 836.806 370.667C836.6 370.892 836.291 371.117 835.879 371.117ZM1155.18 592.067C1153.74 592.067 1152.19 591.842 1150.54 591.28C1141.89 588.242 1133.45 576.992 1131.28 568.78C1130.87 567.205 1130.56 565.517 1130.36 563.83C1122.01 567.542 1114.39 575.755 1114.49 587.455C1114.49 589.142 1113.26 590.492 1111.71 590.605C1110.17 590.605 1108.93 589.255 1108.93 587.567C1108.83 580.03 1111.4 573.055 1116.14 567.317C1119.85 562.817 1124.79 559.33 1130.25 557.417C1130.77 550.105 1133.45 542.905 1137.88 537.842C1145.09 529.517 1156.62 527.83 1165.99 526.48L1166.72 526.367C1168.26 526.142 1169.7 527.38 1169.91 528.955C1170.11 530.642 1168.98 532.217 1167.54 532.442L1166.82 532.555C1157.96 533.905 1147.87 535.367 1142.1 542.005C1139.01 545.605 1136.95 550.667 1136.23 555.955C1144.36 554.83 1154.46 557.417 1161.26 562.367C1165.69 565.63 1168.57 571.142 1168.67 576.655C1168.88 581.492 1166.92 585.992 1163.32 589.142C1160.84 590.942 1158.17 592.067 1155.18 592.067ZM1135.92 562.03C1136.02 563.717 1136.33 565.405 1136.74 566.98C1138.49 573.505 1145.7 582.955 1152.3 585.317C1155.18 586.33 1157.55 585.88 1159.71 584.08C1162.49 581.717 1163.01 578.68 1162.9 576.655C1162.8 573.055 1160.84 569.455 1157.96 567.317C1152.09 562.93 1142.82 560.792 1135.92 562.03Z" fill="white"/>
</svg>
